<?xml version="1.0" encoding="utf-8"?>
<!-- Svg Vector Icons : http://www.onlinewebfonts.com/icon -->
<!DOCTYPE svg PUBLIC "-//W3C//DTD SVG 1.1//EN" "http://www.w3.org/Graphics/SVG/1.1/DTD/svg11.dtd">
<svg fill="#ef9105" version="1.1" xmlns="http://www.w3.org/2000/svg" xmlns:xlink="http://www.w3.org/1999/xlink" x="0px" y="0px" viewBox="0 0 1000 1000" enable-background="new 0 0 1000 1000" xml:space="preserve">
<metadata> Svg Vector Icons : http://www.onlinewebfonts.com/icon </metadata>
<g><path d="M923.7,716.7H814.3V607.4c0-30.2-24.5-54.7-54.7-54.7c-30.2,0-54.7,24.5-54.7,54.7v109.3H595.7c-30.2,0-54.7,24.5-54.7,54.7c0,30.2,24.4,54.7,54.7,54.7H705v109.3c0,30.2,24.5,54.7,54.7,54.7c30.2,0,54.7-24.5,54.7-54.7V826h109.3c30.2,0,54.7-24.5,54.7-54.7C978.3,741.2,953.8,716.7,923.7,716.7z"/><path d="M595.7,880.7H135.3c18.8-120.8,98.5-221.2,206.8-269.5c22.1-7.7,38.1-28.2,38.1-52.9c0-21.2-11.5-39.8-28.9-49.5c-50.6-40.1-83.7-101.3-83.7-170.9c0-120.8,97.9-218.6,218.7-218.6C607,119.3,705,217.2,705,337.9c0,27.9-6.5,53.9-16.2,78.3c0,0-4.8,15.5-4.8,24c0,30.1,24.3,54.4,54.5,54.4c18.8,0,34.6-10.2,44.4-24.7c0,0,5.7-9.5,6.2-10.9c15.6-37.4,25.3-77.8,25.3-121c0-181.1-146.9-327.9-328-327.9c-181.1,0-328,146.8-328,327.9c0,79.8,29.1,152.1,76.8,208.7c-128,82.6-213.4,225.1-213.4,388.7c0,5.7,0.6,11.3,0.9,16.9v-16.9c0,30.2,24.5,54.7,54.7,54.7c0.1,0,0.1-0.1,0.2-0.1l518.1,0c0.1,0,0.1,0,0.2,0c30.2,0,54.7-24.5,54.7-54.7C650.3,905.1,625.8,880.7,595.7,880.7z"/></g>
</svg>
