<?xml version="1.0" encoding="utf-8"?>
<!-- Svg Vector Icons : http://www.onlinewebfonts.com/icon -->
<!DOCTYPE svg PUBLIC "-//W3C//DTD SVG 1.1//EN" "http://www.w3.org/Graphics/SVG/1.1/DTD/svg11.dtd">
<svg fill="#ff5e52" version="1.1" xmlns="http://www.w3.org/2000/svg" xmlns:xlink="http://www.w3.org/1999/xlink" x="0px" y="0px" viewBox="0 0 1000 1000" enable-background="new 0 0 1000 1000" xml:space="preserve">
<metadata> Svg Vector Icons : http://www.onlinewebfonts.com/icon </metadata>
<g><path d="M500,10C229.4,10,10,229.4,10,500s219.4,490,490,490s490-219.4,490-490S770.6,10,500,10z M500,867.5c-202.9,0-367.5-164.6-367.5-367.5c0-202.9,164.6-367.5,367.5-367.5c202.9,0,367.5,164.6,367.5,367.5C867.5,702.9,702.9,867.5,500,867.5z"/><path d="M716.5,629.9L586.6,500l129.9-129.9l-86.6-86.7L500,413.4l-129.9-130l-86.7,86.7l130,129.9l-130,129.9l86.7,86.6L500,586.6l129.9,129.9L716.5,629.9z"/></g>
</svg>